<svg width="16" height="16" viewBox="0 0 16 16" fill="none" xmlns="http://www.w3.org/2000/svg">
<path d="M7.99996 0.666626C6.54957 0.666626 5.13174 1.09672 3.92578 1.90252C2.71982 2.70831 1.77989 3.85362 1.22485 5.19361C0.669803 6.53361 0.524579 8.00809 0.807537 9.43062C1.0905 10.8531 1.78893 12.1598 2.81451 13.1854C3.8401 14.211 5.14677 14.9094 6.5693 15.1924C7.99183 15.4753 9.46632 15.3301 10.8063 14.7751C12.1463 14.22 13.2916 13.2801 14.0974 12.0741C14.9032 10.8682 15.3333 9.45036 15.3333 7.99996C15.331 6.05574 14.5576 4.19181 13.1829 2.81704C11.8081 1.44227 9.94418 0.66892 7.99996 0.666626ZM7.99996 14C6.81327 14 5.65324 13.6481 4.66654 12.9888C3.67985 12.3295 2.91081 11.3924 2.45669 10.2961C2.00256 9.1997 1.88374 7.9933 2.11525 6.82942C2.34676 5.66553 2.91821 4.59643 3.75732 3.75732C4.59644 2.9182 5.66553 2.34676 6.82942 2.11525C7.99331 1.88374 9.19971 2.00256 10.2961 2.45668C11.3924 2.91081 12.3295 3.67984 12.9888 4.66654C13.6481 5.65323 14 6.81327 14 7.99996C13.998 9.59066 13.3653 11.1157 12.2405 12.2405C11.1157 13.3653 9.59067 13.998 7.99996 14Z" fill="#8E9296"/>
<path d="M8.66659 7.72392V3.99992C8.66659 3.82311 8.59635 3.65354 8.47132 3.52851C8.3463 3.40349 8.17673 3.33325 7.99992 3.33325C7.82311 3.33325 7.65354 3.40349 7.52851 3.52851C7.40349 3.65354 7.33325 3.82311 7.33325 3.99992V7.99992C7.33329 8.17672 7.40355 8.34626 7.52859 8.47125L9.52859 10.4713C9.65432 10.5927 9.82272 10.6599 9.99752 10.6584C10.1723 10.6568 10.3395 10.5867 10.4631 10.4631C10.5867 10.3395 10.6568 10.1723 10.6584 9.99752C10.6599 9.82272 10.5927 9.65432 10.4713 9.52859L8.66659 7.72392Z" fill="#8E9296"/>
</svg>
