<svg width="10" height="17" viewBox="0 0 10 17" fill="none" xmlns="http://www.w3.org/2000/svg">
<path d="M5 0.75C3.67438 0.75154 2.40349 1.28839 1.46614 2.24278C0.528782 3.19717 0.0015124 4.49115 0 5.84086C0 9.65391 4.22571 16.1513 4.40571 16.4262C4.47095 16.5258 4.55932 16.6075 4.66299 16.664C4.76666 16.7204 4.88242 16.75 5 16.75C5.11758 16.75 5.23334 16.7204 5.33701 16.664C5.44068 16.6075 5.52906 16.5258 5.59429 16.4262C5.77429 16.1513 10 9.65391 10 5.84086C9.99849 4.49115 9.47122 3.19717 8.53386 2.24278C7.59651 1.28839 6.32562 0.75154 5 0.75ZM5 8.02265C4.57618 8.02265 4.16188 7.89469 3.80949 7.65495C3.4571 7.41522 3.18245 7.07447 3.02026 6.67579C2.85807 6.27712 2.81563 5.83844 2.89832 5.41521C2.981 4.99198 3.18509 4.60322 3.48477 4.29809C3.78446 3.99296 4.16628 3.78517 4.58195 3.70098C4.99762 3.6168 5.42848 3.66001 5.82004 3.82514C6.21159 3.99028 6.54626 4.26992 6.78172 4.62872C7.01718 4.98751 7.14286 5.40934 7.14286 5.84086C7.14286 6.41951 6.91709 6.97445 6.51523 7.38362C6.11337 7.79279 5.56832 8.02265 5 8.02265Z" fill="#2E81C7"/>
</svg>
