<svg width="201" height="38" viewBox="0 0 201 38" fill="none" xmlns="http://www.w3.org/2000/svg">
<path opacity="0.8" d="M88.9873 9.97665H87.2041V13.7447H86.007V5.18092H87.2041V8.90003H89.0123L91.6996 5.18092H93.0065L89.9527 9.32822L93.1526 13.7447H91.7601L88.9873 9.97665ZM98.473 13.8426C97.6093 13.8426 96.832 13.655 96.1402 13.2798C95.4476 12.8965 94.9019 12.3704 94.5031 11.7016C94.1124 11.0328 93.9171 10.2865 93.9171 9.46284C93.9171 8.63905 94.1124 7.89278 94.5031 7.22399C94.9019 6.5552 95.4476 6.03322 96.1402 5.65804C96.832 5.27471 97.6093 5.08305 98.473 5.08305C99.3279 5.08305 100.101 5.27471 100.794 5.65804C101.486 6.03322 102.027 6.5552 102.418 7.22399C102.809 7.88462 103.005 8.63088 103.005 9.46284C103.005 10.2947 102.809 11.0451 102.418 11.7139C102.027 12.3745 101.486 12.8965 100.794 13.2798C100.101 13.655 99.3279 13.8426 98.473 13.8426ZM98.473 12.7537C99.0995 12.7537 99.6621 12.611 100.159 12.3255C100.663 12.0401 101.059 11.6486 101.344 11.1511C101.637 10.6454 101.783 10.0826 101.783 9.46284C101.783 8.84295 101.637 8.28427 101.344 7.78675C101.059 7.28108 100.663 6.88552 100.159 6.60005C99.6621 6.31459 99.0995 6.17187 98.473 6.17187C97.8458 6.17187 97.2759 6.31459 96.7625 6.60005C96.258 6.88552 95.8592 7.28108 95.5654 7.78675C95.2805 8.28427 95.1384 8.84295 95.1384 9.46284C95.1384 10.0826 95.2805 10.6454 95.5654 11.1511C95.8592 11.6486 96.258 12.0401 96.7625 12.3255C97.2759 12.611 97.8458 12.7537 98.473 12.7537ZM112.576 5.18092V13.7447H111.355V9.92773H106.444V13.7447H105.223V5.18092H106.444V8.86333H111.355V5.18092H112.576ZM120.813 9.3038C121.391 9.44238 121.827 9.69116 122.12 10.0501C122.421 10.4008 122.572 10.8534 122.572 11.408C122.572 12.1502 122.299 12.7252 121.754 13.133C121.216 13.5408 120.43 13.7447 119.396 13.7447H115.487V5.18092H119.164C120.1 5.18092 120.829 5.37258 121.351 5.75591C121.879 6.13109 122.144 6.67346 122.144 7.38303C122.144 7.84793 122.026 8.24352 121.79 8.56976C121.562 8.89599 121.236 9.14065 120.813 9.3038ZM116.696 8.94895H119.078C119.673 8.94895 120.125 8.83074 120.435 8.59417C120.752 8.35768 120.911 8.01104 120.911 7.55431C120.911 7.09757 120.752 6.75095 120.435 6.51442C120.116 6.26974 119.664 6.1474 119.078 6.1474H116.696V8.94895ZM119.371 12.7782C120.682 12.7782 121.338 12.2888 121.338 11.3101C121.338 10.8208 121.172 10.4619 120.837 10.2336C120.512 9.99702 120.023 9.87873 119.371 9.87873H116.696V12.7782H119.371ZM131.062 12.6804V13.7447H124.857V5.18092H130.891V6.24527H126.079V8.87562H130.366V9.91544H126.079V12.6804H131.062ZM133.224 5.18092H134.433V11.7873L139.491 5.18092H140.614V13.7447H139.417V7.15059L134.348 13.7447H133.224V5.18092ZM136.901 4.58145C136.233 4.58145 135.716 4.43872 135.35 4.15326C134.991 3.85964 134.808 3.44369 134.8 2.9054H135.667C135.675 3.22347 135.786 3.47223 135.997 3.65167C136.217 3.82294 136.519 3.90858 136.901 3.90858C137.268 3.90858 137.561 3.82294 137.78 3.65167C138.009 3.47223 138.127 3.22347 138.135 2.9054H138.989C138.981 3.43553 138.794 3.84741 138.428 4.14103C138.069 4.43464 137.561 4.58145 136.901 4.58145ZM149.729 12.6804V13.7447H143.524V5.18092H149.559V6.24527H144.746V8.87562H149.033V9.91544H144.746V12.6804H149.729ZM155.226 5.18092C156.334 5.18092 157.205 5.44599 157.84 5.97613C158.475 6.50626 158.793 7.23622 158.793 8.16599C158.793 9.09577 158.475 9.82578 157.84 10.3559C157.205 10.8861 156.334 11.1511 155.226 11.1511H153.113V13.7447H151.891V5.18092H155.226ZM155.19 10.0868C155.963 10.0868 156.553 9.92361 156.961 9.59737C157.368 9.26297 157.571 8.78587 157.571 8.16599C157.571 7.54615 157.368 7.07311 156.961 6.74686C156.553 6.41247 155.963 6.24527 155.19 6.24527H153.113V10.0868H155.19ZM168.089 5.18092V13.7447H166.868V9.92773H161.958V13.7447H160.736V5.18092H161.958V8.86333H166.868V5.18092H168.089ZM174.848 13.8426C173.984 13.8426 173.207 13.655 172.515 13.2798C171.823 12.8965 171.277 12.3704 170.878 11.7016C170.488 11.0328 170.292 10.2865 170.292 9.46284C170.292 8.63905 170.488 7.89278 170.878 7.22399C171.277 6.5552 171.823 6.03322 172.515 5.65804C173.207 5.27471 173.984 5.08305 174.848 5.08305C175.703 5.08305 176.476 5.27471 177.169 5.65804C177.861 6.03322 178.402 6.5552 178.793 7.22399C179.184 7.88462 179.379 8.63088 179.379 9.46284C179.379 10.2947 179.184 11.0451 178.793 11.7139C178.402 12.3745 177.861 12.8965 177.169 13.2798C176.476 13.655 175.703 13.8426 174.848 13.8426ZM174.848 12.7537C175.475 12.7537 176.036 12.611 176.534 12.3255C177.038 12.0401 177.434 11.6486 177.719 11.1511C178.012 10.6454 178.158 10.0826 178.158 9.46284C178.158 8.84295 178.012 8.28427 177.719 7.78675C177.434 7.28108 177.038 6.88552 176.534 6.60005C176.036 6.31459 175.475 6.17187 174.848 6.17187C174.221 6.17187 173.651 6.31459 173.138 6.60005C172.633 6.88552 172.234 7.28108 171.941 7.78675C171.656 8.28427 171.514 8.84295 171.514 9.46284C171.514 10.0826 171.656 10.6454 171.941 11.1511C172.234 11.6486 172.633 12.0401 173.138 12.3255C173.651 12.611 174.221 12.7537 174.848 12.7537ZM187.803 12.6804V13.7447H181.598V5.18092H187.632V6.24527H182.82V8.87562H187.108V9.91544H182.82V12.6804H187.803ZM89.8551 33.2469C88.9913 33.2469 88.214 33.0592 87.5222 32.6841C86.8296 32.3008 86.2839 31.7747 85.8851 31.1059C85.4944 30.4371 85.2991 29.6908 85.2991 28.8671C85.2991 28.0433 85.4944 27.297 85.8851 26.6282C86.2839 25.9594 86.8296 25.4375 87.5222 25.0623C88.214 24.6789 88.9913 24.4873 89.8551 24.4873C90.7099 24.4873 91.4833 24.6789 92.1759 25.0623C92.8677 25.4375 93.4093 25.9594 93.8 26.6282C94.1907 27.2889 94.3869 28.0351 94.3869 28.8671C94.3869 29.699 94.1907 30.4493 93.8 31.1181C93.4093 31.7788 92.8677 32.3008 92.1759 32.6841C91.4833 33.0592 90.7099 33.2469 89.8551 33.2469ZM89.8551 32.158C90.4815 32.158 91.0441 32.0153 91.5406 31.7298C92.0451 31.4444 92.4406 31.0529 92.7256 30.5553C93.0186 30.0497 93.1647 29.4869 93.1647 28.8671C93.1647 28.2472 93.0186 27.6885 92.7256 27.191C92.4406 26.6853 92.0451 26.2898 91.5406 26.0043C91.0441 25.7188 90.4815 25.5761 89.8551 25.5761C89.2279 25.5761 88.658 25.7188 88.1446 26.0043C87.64 26.2898 87.2413 26.6853 86.9474 27.191C86.6625 27.6885 86.5204 28.2472 86.5204 28.8671C86.5204 29.4869 86.6625 30.0497 86.9474 30.5553C87.2413 31.0529 87.64 31.4444 88.1446 31.7298C88.658 32.0153 89.2279 32.158 89.8551 32.158ZM96.6051 24.5851H103.055V25.625H97.8143V28.0718H100.477C101.495 28.0718 102.269 28.2839 102.798 28.7081C103.328 29.1321 103.592 29.7438 103.592 30.5431C103.592 31.3832 103.303 32.0275 102.725 32.4761C102.155 32.9247 101.336 33.149 100.27 33.149H96.6051V24.5851ZM100.221 32.1825C100.921 32.1825 101.454 32.0479 101.821 31.7788C102.187 31.5096 102.37 31.114 102.37 30.5921C102.37 29.5563 101.654 29.0383 100.221 29.0383H97.8143V32.1825H100.221ZM109.631 33.2469C108.768 33.2469 107.991 33.0592 107.298 32.6841C106.607 32.3008 106.061 31.7747 105.661 31.1059C105.271 30.4371 105.075 29.6908 105.075 28.8671C105.075 28.0433 105.271 27.297 105.661 26.6282C106.061 25.9594 106.607 25.4375 107.298 25.0623C107.991 24.6789 108.768 24.4873 109.631 24.4873C110.486 24.4873 111.26 24.6789 111.952 25.0623C112.645 25.4375 113.186 25.9594 113.577 26.6282C113.968 27.2889 114.163 28.0351 114.163 28.8671C114.163 29.699 113.968 30.4493 113.577 31.1181C113.186 31.7788 112.645 32.3008 111.952 32.6841C111.26 33.0592 110.486 33.2469 109.631 33.2469ZM109.631 32.158C110.259 32.158 110.82 32.0153 111.317 31.7298C111.822 31.4444 112.217 31.0529 112.502 30.5553C112.795 30.0497 112.942 29.4869 112.942 28.8671C112.942 28.2472 112.795 27.6885 112.502 27.191C112.217 26.6853 111.822 26.2898 111.317 26.0043C110.82 25.7188 110.259 25.5761 109.631 25.5761C109.004 25.5761 108.434 25.7188 107.922 26.0043C107.416 26.2898 107.018 26.6853 106.725 27.191C106.44 27.6885 106.297 28.2472 106.297 28.8671C106.297 29.4869 106.44 30.0497 106.725 30.5553C107.018 31.0529 107.416 31.4444 107.922 31.7298C108.434 32.0153 109.004 32.158 109.631 32.158ZM119.717 24.5851C120.824 24.5851 121.695 24.8502 122.331 25.3804C122.966 25.9105 123.283 26.6405 123.283 27.5702C123.283 28.5 122.966 29.23 122.331 29.7602C121.695 30.2903 120.824 30.5553 119.717 30.5553H117.604V33.149H116.382V24.5851H119.717ZM119.68 29.491C120.454 29.491 121.044 29.3279 121.451 29.0016C121.858 28.6672 122.062 28.1901 122.062 27.5702C122.062 26.9504 121.858 26.4774 121.451 26.1511C121.044 25.8167 120.454 25.6495 119.68 25.6495H117.604V29.491H119.68ZM132.034 24.5851L128.236 31.6442C127.934 32.207 127.58 32.627 127.173 32.9043C126.766 33.1816 126.322 33.3202 125.842 33.3202C125.468 33.3202 125.085 33.2346 124.693 33.0633L125.012 32.0846C125.313 32.1906 125.581 32.2437 125.817 32.2437C126.355 32.2437 126.799 31.9582 127.149 31.3873L127.344 31.0814L123.9 24.5851H125.207L127.98 30.017L130.825 24.5851H132.034ZM141.586 32.0846V35.0207H140.451V33.149H133.415L133.403 35.0207H132.266L132.279 32.0846H132.694C133.232 32.052 133.61 31.6278 133.83 30.8123C134.05 29.9885 134.184 28.8304 134.233 27.3378L134.319 24.5851H140.328V32.0846H141.586ZM135.308 27.4479C135.267 28.655 135.17 29.6541 135.015 30.4452C134.868 31.2364 134.628 31.7828 134.294 32.0846H139.119V25.6495H135.369L135.308 27.4479ZM147.348 33.2469C146.485 33.2469 145.707 33.0592 145.015 32.6841C144.323 32.3008 143.777 31.7747 143.378 31.1059C142.988 30.4371 142.792 29.6908 142.792 28.8671C142.792 28.0433 142.988 27.297 143.378 26.6282C143.777 25.9594 144.323 25.4375 145.015 25.0623C145.707 24.6789 146.485 24.4873 147.348 24.4873C148.203 24.4873 148.977 24.6789 149.668 25.0623C150.361 25.4375 150.903 25.9594 151.293 26.6282C151.684 27.2889 151.879 28.0351 151.879 28.8671C151.879 29.699 151.684 30.4493 151.293 31.1181C150.903 31.7788 150.361 32.3008 149.668 32.6841C148.977 33.0592 148.203 33.2469 147.348 33.2469ZM147.348 32.158C147.975 32.158 148.537 32.0153 149.034 31.7298C149.538 31.4444 149.933 31.0529 150.218 30.5553C150.512 30.0497 150.658 29.4869 150.658 28.8671C150.658 28.2472 150.512 27.6885 150.218 27.191C149.933 26.6853 149.538 26.2898 149.034 26.0043C148.537 25.7188 147.975 25.5761 147.348 25.5761C146.721 25.5761 146.151 25.7188 145.638 26.0043C145.133 26.2898 144.734 26.6853 144.441 27.191C144.156 27.6885 144.014 28.2472 144.014 28.8671C144.014 29.4869 144.156 30.0497 144.441 30.5553C144.734 31.0529 145.133 31.4444 145.638 31.7298C146.151 32.0153 146.721 32.158 147.348 32.158ZM159.424 28.7081C160.002 28.8466 160.438 29.0954 160.731 29.4543C161.032 29.805 161.183 30.2577 161.183 30.8123C161.183 31.5545 160.91 32.1294 160.364 32.5372C159.827 32.9451 159.041 33.149 158.007 33.149H154.098V24.5851H157.775C158.712 24.5851 159.441 24.7768 159.961 25.1602C160.491 25.5354 160.756 26.0777 160.756 26.7873C160.756 27.2522 160.637 27.6478 160.401 27.974C160.173 28.3002 159.847 28.5449 159.424 28.7081ZM155.308 28.3532H157.69C158.284 28.3532 158.736 28.235 159.045 27.9984C159.363 27.7619 159.521 27.4153 159.521 26.9586C159.521 26.5018 159.363 26.1552 159.045 25.9187C158.728 25.674 158.276 25.5516 157.69 25.5516H155.308V28.3532ZM157.983 32.1825C159.294 32.1825 159.949 31.6931 159.949 30.7144C159.949 30.2251 159.782 29.8662 159.449 29.6378C159.123 29.4013 158.634 29.283 157.983 29.283H155.308V32.1825H157.983ZM169.026 31.008H164.482L163.541 33.149H162.283L166.155 24.5851H167.364L171.249 33.149H169.966L169.026 31.008ZM168.598 30.0293L166.753 25.8331L164.909 30.0293H168.598ZM180.322 24.5851V33.149H179.1V29.332H174.19V33.149H172.968V24.5851H174.19V28.2676H179.1V24.5851H180.322ZM183.233 24.5851H184.442V31.1916L189.499 24.5851H190.622V33.149H189.425V26.5548L184.357 33.149H183.233V24.5851ZM199.737 32.0846V33.149H193.532V24.5851H199.566V25.6495H194.754V28.2799H199.041V29.3197H194.754V32.0846H199.737Z" fill="#182A44"/>
<path d="M33.5327 29.1218L28.6255 34.0368H31.897L35.9864 27.4835L33.5327 29.1218Z" fill="#0065BB"/>
<path d="M22.0825 29.1218L17.1753 34.0368H20.4467L25.354 27.4835L22.0825 29.1218Z" fill="#0065BB"/>
<path d="M16.3574 29.1218L11.4502 34.0368H14.7217L19.6289 27.4835L16.3574 29.1218Z" fill="#0065BB"/>
<path d="M27.8077 29.1218L22.9004 34.0368H26.1719L31.0792 27.4835L27.8077 29.1218Z" fill="#0065BB"/>
<path d="M68.7012 8.64258H57.251L62.5671 3.72754H73.6084L68.7012 8.64258Z" fill="#182A44"/>
<path fill-rule="evenodd" clip-rule="evenodd" d="M44.165 10.3385V34.0368V29.1218H40.0757L35.1685 34.0368H44.165H72.7906V16.8342H49.0723V10.3385H44.165ZM67.8833 29.1217V21.7493H49.0723V29.1217H67.8833Z" fill="#182A44"/>
<path d="M12.2681 29.1218L7.36086 34.0369V8.64258H4.08937L0 3.72754H17.9932L22.1179 8.64258H26.4313H12.2681V16.8342H29.4434V10.3385H34.3507V21.7493H12.2681V29.1218Z" fill="#182A44"/>
<path d="M36.8334 8.64257V26.6644L41.728 20.9302V8.64257H54.7974L60.1136 3.72754H48.1987H39.2777H30.7017H27.8429H20.4468L24.5715 8.64257H36.8334Z" fill="#0065BB"/>
<path d="M36.8334 8.64257V26.6644L41.728 20.9302V8.64257H54.7974L60.1136 3.72754H48.1987H39.2777H30.7017H27.8429H20.4468L24.5715 8.64257H36.8334Z" fill="url(#paint0_linear_24_237)" fill-opacity="0.2"/>
<defs>
<linearGradient id="paint0_linear_24_237" x1="38.8489" y1="3.72754" x2="38.8489" y2="32.3986" gradientUnits="userSpaceOnUse">
<stop stop-color="#FBFBFB"/>
<stop offset="1" stop-color="#0769BC"/>
</linearGradient>
</defs>
</svg>
