<svg width="20" height="20" viewBox="0 0 20 20" fill="none" xmlns="http://www.w3.org/2000/svg">
<path d="M15.625 8.125H7.5C7.33424 8.125 7.17527 8.19085 7.05806 8.30806C6.94085 8.42527 6.875 8.58424 6.875 8.75C6.875 8.91576 6.94085 9.07473 7.05806 9.19194C7.17527 9.30915 7.33424 9.375 7.5 9.375H15.625C15.7908 9.375 15.9497 9.30915 16.0669 9.19194C16.1842 9.07473 16.25 8.91576 16.25 8.75C16.25 8.58424 16.1842 8.42527 16.0669 8.30806C15.9497 8.19085 15.7908 8.125 15.625 8.125Z" fill="white"/>
<path d="M18.675 5.6875C18.4992 5.47274 18.278 5.29968 18.0273 5.18079C17.7765 5.0619 17.5025 5.00015 17.225 5H4.8875L4.5625 3.38125C4.47732 2.95659 4.24775 2.57451 3.91278 2.29993C3.57782 2.02535 3.15812 1.8752 2.725 1.875H1.25C1.08424 1.875 0.925268 1.94085 0.808058 2.05806C0.690848 2.17527 0.625 2.33424 0.625 2.5C0.625 2.66576 0.690848 2.82473 0.808058 2.94194C0.925268 3.05915 1.08424 3.125 1.25 3.125H2.725C2.87122 3.12205 3.01384 3.17047 3.12804 3.26183C3.24223 3.35319 3.32078 3.4817 3.35 3.625L5.4375 14.1188C5.52268 14.5434 5.75225 14.9255 6.08722 15.2001C6.42218 15.4747 6.84188 15.6248 7.275 15.625H16.875C17.0408 15.625 17.1997 15.5592 17.3169 15.4419C17.4342 15.3247 17.5 15.1658 17.5 15C17.5 14.8342 17.4342 14.6753 17.3169 14.5581C17.1997 14.4408 17.0408 14.375 16.875 14.375H7.275C7.12878 14.3779 6.98616 14.3295 6.87196 14.2382C6.75776 14.1468 6.67922 14.0183 6.65 13.875L6.3875 12.5H16.475C16.9081 12.4998 17.3278 12.3497 17.6628 12.0751C17.9977 11.8005 18.2273 11.4184 18.3125 10.9938L19.0625 7.24375C19.117 6.97184 19.1105 6.69121 19.0435 6.4221C18.9765 6.15299 18.8507 5.9021 18.675 5.6875V5.6875ZM17.0875 10.75C17.0583 10.8933 16.9797 11.0218 16.8655 11.1132C16.7513 11.2045 16.6087 11.2529 16.4625 11.25H6.1375L5.1375 6.25H17.225C17.3173 6.25061 17.4084 6.27166 17.4916 6.31165C17.5748 6.35163 17.6481 6.40955 17.7062 6.48125C17.7652 6.55261 17.8075 6.63616 17.8302 6.72587C17.8529 6.81558 17.8554 6.90921 17.8375 7L17.0875 10.75Z" fill="white"/>
<path d="M15.5 19.25C16.0523 19.25 16.5 18.8023 16.5 18.25C16.5 17.6977 16.0523 17.25 15.5 17.25C14.9477 17.25 14.5 17.6977 14.5 18.25C14.5 18.8023 14.9477 19.25 15.5 19.25Z" fill="white"/>
<path d="M8.5 19.25C9.05228 19.25 9.5 18.8023 9.5 18.25C9.5 17.6977 9.05228 17.25 8.5 17.25C7.94772 17.25 7.5 17.6977 7.5 18.25C7.5 18.8023 7.94772 19.25 8.5 19.25Z" fill="white"/>
</svg>
