<svg width="30" height="30" viewBox="0 0 30 30" fill="none" xmlns="http://www.w3.org/2000/svg">
<circle cx="15" cy="15" r="14.5" stroke="#8E9296"/>
<g clip-path="url(#clip0_45_2)">
<path d="M21.7479 8.36015C21.4924 8.12604 21.1292 8.04802 20.8 8.1565L6.83511 12.7599C6.45452 12.8854 6.19644 13.2251 6.17761 13.6254C6.15881 14.0256 6.38386 14.3881 6.75095 14.5488L10.2046 16.0598C10.2214 16.138 11.2129 20.7363 11.2466 20.8926C11.2899 21.0934 11.3918 21.2722 11.6076 21.3272C11.826 21.3828 11.9802 21.2635 12.1432 21.1415C12.2338 21.0737 14.7061 19.2225 14.7061 19.2225L17.7023 21.6743C17.8768 21.8172 18.0901 21.8917 18.3076 21.8917C18.4111 21.8916 18.5156 21.8748 18.6173 21.8403C18.9327 21.7333 19.1665 21.476 19.2427 21.1518L22.0334 9.28653C22.1128 8.94919 22.0034 8.59426 21.7479 8.36015ZM12.3664 16.9257C12.3647 16.9297 12.363 16.9343 12.3615 16.9397L11.7837 18.9582L11.139 15.968L15.5723 13.5048L12.4728 16.7457C12.4239 16.7968 12.388 16.8585 12.3664 16.9257ZM12.5498 19.6718L12.8122 18.755L13.0632 17.878L13.9625 18.614L12.5498 19.6718ZM21.1254 9.07293L18.3347 20.9382C18.3333 20.9441 18.3314 20.9522 18.3178 20.9569C18.3042 20.9615 18.2977 20.9562 18.293 20.9524L15.0145 18.2695C15.0144 18.2694 15.0143 18.2693 15.0142 18.2693L13.4952 17.0262L18.3754 11.9235C18.5348 11.7568 18.5484 11.4987 18.4075 11.3161C18.2665 11.1335 18.0133 11.0814 17.8118 11.1934L10.5856 15.2084L7.12487 13.6942C7.11432 13.6896 7.10852 13.687 7.10936 13.6692C7.1102 13.6514 7.11622 13.6494 7.12714 13.6458L21.0921 9.04237C21.0988 9.04017 21.1065 9.03763 21.1177 9.04786C21.1289 9.05816 21.1271 9.06598 21.1254 9.07293Z" fill="#8E9296"/>
</g>
<defs>
<clipPath id="clip0_45_2">
<rect width="15.8824" height="15.8824" fill="white" transform="translate(6.17651 7.05884)"/>
</clipPath>
</defs>
</svg>
