<svg width="30" height="30" viewBox="0 0 30 30" fill="none" xmlns="http://www.w3.org/2000/svg">
<circle cx="15" cy="15" r="15" fill="#2080D2" fill-opacity="0.9"/>
<g clip-path="url(#clip0_50_960)">
<path d="M21.7478 8.36008C21.4923 8.12598 21.1292 8.04796 20.8 8.15644L6.83507 12.7599C6.45448 12.8853 6.19639 13.225 6.17756 13.6253C6.15876 14.0256 6.38381 14.3881 6.75091 14.5487L10.2045 16.0598C10.2214 16.1379 11.2128 20.7363 11.2465 20.8926C11.2898 21.0933 11.3917 21.2722 11.6076 21.3272C11.8259 21.3828 11.9802 21.2634 12.1431 21.1415C12.2338 21.0736 14.706 19.2224 14.706 19.2224L17.7022 21.6742C17.8767 21.8171 18.09 21.8916 18.3075 21.8916C18.4111 21.8916 18.5156 21.8747 18.6173 21.8402C18.9326 21.7333 19.1664 21.4759 19.2426 21.1518L22.0334 9.28647C22.1127 8.94913 22.0033 8.59419 21.7478 8.36008ZM12.3664 16.9256C12.3647 16.9297 12.363 16.9342 12.3614 16.9397L11.7837 18.9581L11.139 15.9679L15.5723 13.5048L12.4727 16.7457C12.4239 16.7967 12.388 16.8585 12.3664 16.9256ZM12.5497 19.6717L12.8121 18.7549L13.0631 17.878L13.9624 18.6139L12.5497 19.6717ZM21.1254 9.07287L18.3346 20.9382C18.3332 20.9441 18.3314 20.9522 18.3177 20.9568C18.3042 20.9614 18.2976 20.9562 18.293 20.9523L15.0144 18.2694C15.0143 18.2694 15.0143 18.2693 15.0142 18.2692L13.4951 17.0262L18.3753 11.9234C18.5347 11.7567 18.5484 11.4986 18.4074 11.3161C18.2665 11.1335 18.0133 11.0813 17.8117 11.1934L10.5855 15.2083L7.12483 13.6941C7.11428 13.6895 7.10848 13.6869 7.10932 13.6691C7.11015 13.6513 7.11617 13.6493 7.12709 13.6457L21.092 9.04231C21.0988 9.04011 21.1064 9.03757 21.1176 9.0478C21.1289 9.0581 21.127 9.06592 21.1254 9.07287Z" fill="white"/>
</g>
<defs>
<clipPath id="clip0_50_960">
<rect width="15.8824" height="15.8824" fill="white" transform="translate(6.17647 7.05882)"/>
</clipPath>
</defs>
</svg>
