<svg width="30" height="30" viewBox="0 0 30 30" fill="none" xmlns="http://www.w3.org/2000/svg">
<circle cx="15" cy="15" r="15" fill="#AF0BBD" fill-opacity="0.9"/>
<path d="M23.206 13.2873C23.2062 11.6299 22.5566 10.0676 21.377 8.88801C20.1975 7.70846 18.6351 7.05884 16.9776 7.05884H13.2873C13.2871 7.05884 13.2871 7.05884 13.2871 7.05884C11.6299 7.05884 10.0674 7.70846 8.88801 8.88787C7.70846 10.0676 7.05884 11.6299 7.05884 13.2873V16.1881C7.05884 17.4717 7.45036 18.7064 8.19113 19.7588C8.84465 20.6873 9.72356 21.4126 10.7483 21.8723V23.5386C10.7483 24.4001 11.2307 24.7059 11.6437 24.7059C11.9389 24.7059 12.234 24.5602 12.5213 24.273L14.3777 22.4167L16.9778 22.4165C18.6351 22.4165 20.1975 21.7669 21.377 20.5875C22.5566 19.408 23.2062 17.8455 23.2062 16.1881L23.206 13.2873ZM16.9778 21.3825L14.1636 21.3827C14.0264 21.3827 13.895 21.4371 13.7981 21.534L11.7902 23.5418C11.7877 23.5445 11.785 23.5471 11.7823 23.5496C11.7823 23.546 11.7823 23.5422 11.7823 23.5386V21.5273C11.7823 21.3128 11.6499 21.1207 11.4496 21.0442C9.4419 20.2781 8.09298 18.3266 8.09298 16.1881V13.2873C8.09298 11.906 8.63503 10.6033 9.61922 9.61895C10.6034 8.63489 11.906 8.09285 13.2873 8.09285H16.9776C18.3589 8.09285 19.6616 8.63489 20.6458 9.61908C21.6301 10.6034 22.1722 11.9062 22.172 13.2873L22.1722 16.1881C22.172 19.0524 19.8419 21.3825 16.9778 21.3825Z" fill="white"/>
<path d="M15.2578 9.34589C14.9723 9.34589 14.7408 9.57733 14.7408 9.86289C14.7408 10.1483 14.9723 10.3799 15.2578 10.3799C16.441 10.3799 17.5535 10.8406 18.3902 11.6774C19.2269 12.514 19.6877 13.6264 19.6877 14.8097C19.6877 15.0951 19.9191 15.3267 20.2047 15.3267C20.4901 15.3267 20.7217 15.0953 20.7217 14.8097C20.7217 13.3502 20.1534 11.9782 19.1214 10.9462C18.0894 9.91419 16.7173 9.34589 15.2578 9.34589Z" fill="white"/>
<path d="M17.4726 14.8096C17.4726 15.095 17.7042 15.3266 17.9896 15.3266C18.2752 15.3266 18.5066 15.095 18.5066 14.8096C18.5066 13.0182 17.0492 11.5609 15.2578 11.5609C14.9723 11.5609 14.7408 11.7924 14.7408 12.0779C14.7408 12.3635 14.9723 12.5949 15.2578 12.5949C16.4791 12.5949 17.4726 13.5884 17.4726 14.8096Z" fill="white"/>
<path d="M18.4925 17.0555L17.6284 16.1914C17.3927 15.9557 17.0668 15.8375 16.7351 15.8674C16.4031 15.8972 16.1037 16.0713 15.9137 16.3452L15.6127 16.7789C15.2033 16.706 14.4114 16.4996 13.8579 15.946C13.3041 15.3922 13.0977 14.6 13.0249 14.1913L13.4588 13.8902C13.7327 13.7002 13.9068 13.4007 13.9366 13.0687C13.9663 12.7367 13.8482 12.4111 13.6125 12.1754L12.7484 11.3113C12.4011 10.9641 11.8778 10.8813 11.4459 11.105C10.6888 11.4973 10.1914 12.2326 10.0453 13.1755C9.80732 14.7117 10.5175 16.524 11.8987 17.9052C13.1033 19.1098 14.6357 19.8039 16.027 19.8039C16.231 19.8039 16.432 19.789 16.6284 19.7586C17.5713 19.6125 18.3066 19.1151 18.6989 18.358C18.6989 18.358 18.6989 18.358 18.6989 18.358C18.9226 17.9261 18.8397 17.4027 18.4925 17.0555ZM17.8197 17.9025C17.5079 18.5042 16.9174 18.7118 16.4768 18.78C15.2656 18.9676 13.7433 18.3495 12.5988 17.205C11.4544 16.0605 10.8362 14.5384 11.0238 13.3271C11.092 12.8865 11.2997 12.296 11.9014 11.9842C11.9177 11.9758 11.9357 11.9717 11.954 11.9717C11.9876 11.9717 12.0222 11.9855 12.0481 12.0115L12.9123 12.8756C12.9482 12.9116 12.9527 12.9524 12.9502 12.9803C12.9477 13.0083 12.936 13.0476 12.8942 13.0766L12.2117 13.5502C12.0689 13.6493 11.9885 13.816 11.9999 13.9893C12.0042 14.0548 12.1168 15.6053 13.1576 16.6461C14.1985 17.687 15.749 17.7997 15.8145 17.8039C15.9877 17.8151 16.1545 17.7349 16.2536 17.5921L16.7272 16.9096C16.7561 16.8678 16.7955 16.8561 16.8235 16.8536C16.8514 16.851 16.8922 16.8556 16.9282 16.8916L17.7923 17.7556C17.8325 17.7958 17.8437 17.8561 17.8197 17.9025Z" fill="white"/>
</svg>
