<svg width="30" height="30" viewBox="0 0 30 30" fill="none" xmlns="http://www.w3.org/2000/svg">
<circle cx="15" cy="15" r="15" fill="#CF16DF" fill-opacity="0.9"/>
<path d="M23.206 13.2873C23.2062 11.6299 22.5566 10.0676 21.377 8.88801C20.1975 7.70846 18.6351 7.05884 16.9776 7.05884H13.2873C13.2871 7.05884 13.2871 7.05884 13.2871 7.05884C11.6299 7.05884 10.0674 7.70846 8.88801 8.88787C7.70846 10.0676 7.05884 11.6299 7.05884 13.2873V16.1881C7.05884 17.4717 7.45036 18.7064 8.19113 19.7588C8.84465 20.6873 9.72356 21.4126 10.7483 21.8723V23.5386C10.7483 24.4001 11.2307 24.7059 11.6437 24.7059C11.9389 24.7059 12.234 24.5602 12.5213 24.273L14.3777 22.4167L16.9778 22.4165C18.6351 22.4165 20.1975 21.7669 21.377 20.5875C22.5566 19.408 23.2062 17.8455 23.2062 16.1881L23.206 13.2873ZM16.9778 21.3825L14.1636 21.3827C14.0264 21.3827 13.895 21.4371 13.7981 21.534L11.7902 23.5418C11.7877 23.5445 11.785 23.5471 11.7823 23.5496C11.7823 23.546 11.7823 23.5422 11.7823 23.5386V21.5273C11.7823 21.3128 11.6499 21.1207 11.4496 21.0442C9.4419 20.2781 8.09298 18.3266 8.09298 16.1881V13.2873C8.09298 11.906 8.63503 10.6033 9.61922 9.61895C10.6034 8.63489 11.906 8.09285 13.2873 8.09285H16.9776C18.3589 8.09285 19.6616 8.63489 20.6458 9.61908C21.6301 10.6034 22.1722 11.9062 22.172 13.2873L22.1722 16.1881C22.172 19.0524 19.8419 21.3825 16.9778 21.3825Z" fill="white"/>
<path d="M15.258 9.34595C14.9724 9.34595 14.741 9.57739 14.741 9.86295C14.741 10.1484 14.9724 10.38 15.258 10.38C16.4412 10.38 17.5537 10.8407 18.3903 11.6774C19.2271 12.5141 19.6878 13.6264 19.6878 14.8098C19.6878 15.0952 19.9192 15.3268 20.2048 15.3268C20.4902 15.3268 20.7218 15.0953 20.7218 14.8098C20.7218 13.3503 20.1535 11.9782 19.1215 10.9462C18.0895 9.91425 16.7174 9.34595 15.258 9.34595Z" fill="white"/>
<path d="M17.4727 14.8096C17.4727 15.095 17.7043 15.3266 17.9897 15.3266C18.2753 15.3266 18.5067 15.095 18.5067 14.8096C18.5067 13.0182 17.0493 11.5609 15.258 11.5609C14.9724 11.5609 14.741 11.7924 14.741 12.0779C14.741 12.3635 14.9724 12.5949 15.258 12.5949C16.4793 12.5949 17.4727 13.5884 17.4727 14.8096Z" fill="white"/>
<path d="M18.4926 17.0555L17.6285 16.1914C17.3928 15.9556 17.0669 15.8375 16.7351 15.8673C16.4031 15.8971 16.1037 16.0713 15.9137 16.3451L15.6127 16.7789C15.2034 16.7059 14.4115 16.4995 13.8579 15.946C13.3042 15.3922 13.0978 14.5999 13.025 14.1912L13.4589 13.8902C13.7327 13.7001 13.9069 13.4007 13.9366 13.0686C13.9664 12.7366 13.8482 12.411 13.6126 12.1754L12.7485 11.3113C12.4012 10.9641 11.8778 10.8812 11.446 11.1049C10.6888 11.4972 10.1915 12.2325 10.0454 13.1754C9.80738 14.7116 10.5176 16.5239 11.8987 17.9051C13.1033 19.1097 14.6358 19.8039 16.027 19.8039C16.231 19.8039 16.432 19.7889 16.6284 19.7585C17.5714 19.6125 18.3067 19.1151 18.6989 18.3579C18.6989 18.3579 18.6989 18.3579 18.699 18.3579C18.9227 17.926 18.8398 17.4027 18.4926 17.0555ZM17.8197 17.9024C17.508 18.5041 16.9174 18.7117 16.4769 18.78C15.2656 18.9675 13.7434 18.3494 12.5989 17.2049C11.4545 16.0605 10.8362 14.5383 11.0239 13.327C11.0921 12.8864 11.2998 12.2959 11.9015 11.9841C11.9178 11.9757 11.9358 11.9716 11.9541 11.9716C11.9877 11.9716 12.0222 11.9855 12.0482 12.0114L12.9123 12.8756C12.9482 12.9115 12.9528 12.9523 12.9503 12.9803C12.9478 13.0082 12.9361 13.0476 12.8943 13.0766L12.2117 13.5502C12.069 13.6492 11.9886 13.8159 12 13.9893C12.0043 14.0547 12.1169 15.6052 13.1577 16.6461C14.1985 17.6869 15.749 17.7996 15.8145 17.8038C15.9878 17.815 16.1546 17.7348 16.2536 17.592L16.7272 16.9095C16.7562 16.8678 16.7956 16.856 16.8235 16.8535C16.8515 16.8509 16.8923 16.8556 16.9283 16.8915L17.7924 17.7556C17.8325 17.7957 17.8438 17.8561 17.8197 17.9024Z" fill="white"/>
</svg>
