<svg width="30" height="30" viewBox="0 0 30 30" fill="none" xmlns="http://www.w3.org/2000/svg">
<circle cx="15" cy="15" r="14.5" stroke="#8E9296"/>
<path d="M23.206 13.2873C23.2062 11.6299 22.5566 10.0676 21.377 8.88801C20.1975 7.70846 18.6351 7.05884 16.9776 7.05884H13.2873C13.2871 7.05884 13.2871 7.05884 13.2871 7.05884C11.6299 7.05884 10.0674 7.70846 8.88801 8.88787C7.70846 10.0676 7.05884 11.6299 7.05884 13.2873V16.1881C7.05884 17.4717 7.45036 18.7064 8.19113 19.7588C8.84465 20.6873 9.72356 21.4126 10.7483 21.8723V23.5386C10.7483 24.4001 11.2307 24.7059 11.6437 24.7059C11.9389 24.7059 12.234 24.5602 12.5213 24.273L14.3777 22.4167L16.9778 22.4165C18.6351 22.4165 20.1975 21.7669 21.377 20.5875C22.5566 19.408 23.2062 17.8455 23.2062 16.1881L23.206 13.2873ZM16.9778 21.3825L14.1636 21.3827C14.0264 21.3827 13.895 21.4371 13.7981 21.534L11.7902 23.5418C11.7877 23.5445 11.785 23.5471 11.7823 23.5496C11.7823 23.546 11.7823 23.5422 11.7823 23.5386V21.5273C11.7823 21.3128 11.6499 21.1207 11.4496 21.0442C9.4419 20.2781 8.09298 18.3266 8.09298 16.1881V13.2873C8.09298 11.906 8.63503 10.6033 9.61922 9.61895C10.6034 8.63489 11.906 8.09285 13.2873 8.09285H16.9776C18.3589 8.09285 19.6616 8.63489 20.6458 9.61908C21.6301 10.6034 22.1722 11.9062 22.172 13.2873L22.1722 16.1881C22.172 19.0524 19.8419 21.3825 16.9778 21.3825Z" fill="#8E9296"/>
<path d="M15.2577 9.34595C14.9722 9.34595 14.7407 9.57739 14.7407 9.86295C14.7407 10.1484 14.9722 10.38 15.2577 10.38C16.4409 10.38 17.5534 10.8407 18.39 11.6774C19.2268 12.5141 19.6875 13.6264 19.6875 14.8098C19.6875 15.0952 19.919 15.3268 20.2045 15.3268C20.49 15.3268 20.7215 15.0953 20.7215 14.8098C20.7215 13.3503 20.1532 11.9782 19.1213 10.9462C18.0893 9.91425 16.7172 9.34595 15.2577 9.34595Z" fill="#8E9296"/>
<path d="M17.4725 14.8096C17.4725 15.095 17.7041 15.3266 17.9895 15.3266C18.2751 15.3266 18.5065 15.095 18.5065 14.8096C18.5065 13.0182 17.0491 11.5609 15.2577 11.5609C14.9722 11.5609 14.7407 11.7924 14.7407 12.0779C14.7407 12.3635 14.9722 12.5949 15.2577 12.5949C16.479 12.5949 17.4725 13.5884 17.4725 14.8096Z" fill="#8E9296"/>
<path d="M18.4926 17.0556L17.6285 16.1915C17.3928 15.9557 17.0669 15.8376 16.7351 15.8674C16.4031 15.8972 16.1037 16.0714 15.9137 16.3452L15.6127 16.779C15.2034 16.7061 14.4115 16.4997 13.8579 15.9461C13.3042 15.3923 13.0978 14.6 13.025 14.1913L13.4589 13.8903C13.7327 13.7002 13.9069 13.4008 13.9366 13.0688C13.9664 12.7367 13.8482 12.4111 13.6126 12.1755L12.7485 11.3114C12.4012 10.9642 11.8778 10.8813 11.446 11.1051C10.6888 11.4973 10.1915 12.2327 10.0454 13.1755C9.80738 14.7117 10.5176 16.5241 11.8987 17.9052C13.1033 19.1098 14.6358 19.804 16.027 19.804C16.231 19.804 16.432 19.7891 16.6284 19.7587C17.5714 19.6126 18.3067 19.1152 18.6989 18.358C18.6989 18.358 18.6989 18.358 18.699 18.358C18.9227 17.9262 18.8398 17.4028 18.4926 17.0556ZM17.8197 17.9025C17.508 18.5042 16.9174 18.7119 16.4769 18.7801C15.2656 18.9677 13.7434 18.3495 12.5989 17.205C11.4545 16.0606 10.8362 14.5384 11.0239 13.3271C11.0921 12.8866 11.2998 12.296 11.9015 11.9843C11.9178 11.9758 11.9358 11.9717 11.9541 11.9717C11.9877 11.9717 12.0222 11.9856 12.0482 12.0115L12.9123 12.8757C12.9482 12.9116 12.9528 12.9525 12.9503 12.9804C12.9478 13.0083 12.9361 13.0477 12.8943 13.0767L12.2117 13.5503C12.069 13.6493 11.9886 13.816 12 13.9894C12.0043 14.0549 12.1169 15.6054 13.1577 16.6462C14.1985 17.6871 15.749 17.7997 15.8145 17.804C15.9878 17.8151 16.1546 17.7349 16.2536 17.5922L16.7272 16.9096C16.7562 16.8679 16.7956 16.8561 16.8235 16.8536C16.8515 16.8511 16.8923 16.8557 16.9283 16.8916L17.7924 17.7557C17.8325 17.7958 17.8438 17.8562 17.8197 17.9025Z" fill="#8E9296"/>
</svg>
