<svg width="30" height="30" viewBox="0 0 30 30" fill="none" xmlns="http://www.w3.org/2000/svg">
<circle cx="15" cy="15" r="15" fill="#17AC26" fill-opacity="0.9"/>
<g clip-path="url(#clip0_50_967)">
<path d="M18.9749 16.6204L18.1332 15.7787C17.9036 15.5491 17.5862 15.434 17.263 15.463C16.9396 15.492 16.648 15.6617 16.4629 15.9284L16.1697 16.351C15.7709 16.2799 14.9995 16.0789 14.4604 15.5397C13.9209 15.0002 13.7199 14.2285 13.649 13.8304L14.0716 13.5371C14.3384 13.352 14.5081 13.0603 14.537 12.7369C14.566 12.4135 14.4509 12.0963 14.2213 11.8668L13.3796 11.0251C13.0414 10.6869 12.5316 10.6061 12.1109 10.8241C11.3734 11.2062 10.8889 11.9225 10.7466 12.8409C10.5148 14.3373 11.2066 16.1026 12.552 17.448C13.7253 18.6214 15.2181 19.2976 16.5732 19.2976C16.7719 19.2976 16.9677 19.283 17.159 19.2534C18.0776 19.1111 18.7938 18.6266 19.1759 17.8891C19.1759 17.8891 19.1759 17.8891 19.1759 17.8891C19.3938 17.4684 19.3131 16.9586 18.9749 16.6204ZM18.3195 17.4454C18.0158 18.0315 17.4406 18.2337 17.0114 18.3002C15.8316 18.4829 14.3488 17.8808 13.234 16.766C12.1192 15.6512 11.517 14.1685 11.6997 12.9886C11.7662 12.5594 11.9685 11.9842 12.5546 11.6805C12.5705 11.6723 12.588 11.6683 12.6058 11.6683C12.6386 11.6683 12.6722 11.6818 12.6975 11.7071L13.5393 12.5488C13.5742 12.5838 13.5787 12.6236 13.5762 12.6508C13.5738 12.678 13.5624 12.7164 13.5217 12.7446L12.8568 13.2059C12.7178 13.3024 12.6395 13.4648 12.6505 13.6337C12.6547 13.6974 12.7644 15.2077 13.7783 16.2216C14.7921 17.2355 16.3025 17.3453 16.3662 17.3494C16.535 17.3602 16.6975 17.2821 16.794 17.1431L17.2553 16.4782C17.2835 16.4376 17.3219 16.4261 17.3491 16.4237C17.3763 16.4212 17.4161 16.4257 17.4511 16.4607L18.2928 17.3024C18.332 17.3414 18.3429 17.4003 18.3195 17.4454Z" fill="white"/>
<path d="M20.6152 9.38484C19.1152 7.88486 17.121 7.05882 14.9997 7.05882C12.8784 7.05882 10.8842 7.88486 9.38422 9.38481C8.10939 10.6596 7.30007 12.3469 7.10526 14.1357C6.92109 15.8267 7.28862 17.548 8.14131 19.0071L7.31375 22.0956C7.26914 22.262 7.31673 22.4396 7.4386 22.5614C7.56042 22.6832 7.73807 22.7308 7.9044 22.6863L10.9928 21.8587C12.2059 22.5676 13.6002 22.9412 15.0076 22.9412C15.2931 22.9412 15.5791 22.9258 15.8643 22.8947C17.6531 22.7 19.3404 21.8906 20.6152 20.6157C22.1151 19.1158 22.9412 17.1215 22.9412 15.0003C22.9412 12.8791 22.1151 10.8848 20.6152 9.38484ZM19.9331 19.9337C17.6274 22.2395 14.0858 22.6492 11.3208 20.9302C11.2436 20.8823 11.1553 20.8575 11.0661 20.8575C11.0243 20.8575 10.9824 20.8629 10.9413 20.874L8.46162 21.5384L9.12607 19.0587C9.16057 18.9299 9.14019 18.7925 9.0698 18.6793C7.35076 15.9141 7.76053 12.3726 10.0662 10.0669C12.7866 7.34657 17.2128 7.34657 19.9331 10.0669C22.6534 12.7871 22.6534 17.2134 19.9331 19.9337Z" fill="white"/>
</g>
<defs>
<clipPath id="clip0_50_967">
<rect width="15.8824" height="15.8824" fill="white" transform="translate(7.05884 7.05882)"/>
</clipPath>
</defs>
</svg>
