<svg width="30" height="30" viewBox="0 0 30 30" fill="none" xmlns="http://www.w3.org/2000/svg">
<circle cx="15" cy="15" r="14.5" stroke="#8E9296"/>
<g clip-path="url(#clip0_45_9)">
<path d="M18.9749 16.6204L18.1332 15.7787C17.9035 15.5491 17.5861 15.434 17.263 15.4631C16.9395 15.4921 16.6479 15.6617 16.4628 15.9285L16.1696 16.351C15.7709 16.28 14.9995 16.0789 14.4603 15.5397C13.9209 15.0003 13.7199 14.2285 13.649 13.8304L14.0716 13.5372C14.3384 13.352 14.508 13.0603 14.537 12.7369C14.566 12.4135 14.4509 12.0964 14.2213 11.8668L13.3796 11.0251C13.0414 10.6869 12.5315 10.6062 12.1109 10.8241C11.3734 11.2062 10.8889 11.9225 10.7466 12.8409C10.5148 14.3373 11.2065 16.1027 12.5519 17.4481C13.7253 18.6214 15.218 19.2976 16.5732 19.2976C16.7719 19.2976 16.9677 19.2831 17.159 19.2534C18.0775 19.1112 18.7938 18.6266 19.1759 17.8891C19.1759 17.8891 19.1759 17.8891 19.1759 17.8891C19.3938 17.4684 19.3131 16.9586 18.9749 16.6204ZM18.3195 17.4454C18.0158 18.0315 17.4405 18.2338 17.0114 18.3002C15.8315 18.483 14.3488 17.8808 13.2339 16.766C12.1192 15.6512 11.5169 14.1685 11.6997 12.9886C11.7662 12.5595 11.9685 11.9842 12.5546 11.6805C12.5704 11.6723 12.588 11.6683 12.6058 11.6683C12.6386 11.6683 12.6722 11.6818 12.6975 11.7071L13.5392 12.5488C13.5742 12.5839 13.5787 12.6236 13.5762 12.6508C13.5738 12.6781 13.5623 12.7164 13.5216 12.7446L12.8568 13.206C12.7178 13.3025 12.6394 13.4648 12.6505 13.6337C12.6547 13.6975 12.7644 15.2078 13.7782 16.2216C14.7921 17.2355 16.3024 17.3453 16.3662 17.3494C16.535 17.3603 16.6975 17.2822 16.7939 17.1431L17.2553 16.4782C17.2835 16.4376 17.3218 16.4262 17.349 16.4237C17.3763 16.4212 17.416 16.4257 17.4511 16.4607L18.2928 17.3024C18.3319 17.3415 18.3428 17.4003 18.3195 17.4454Z" fill="#8E9296"/>
<path d="M20.6152 9.38486C19.1152 7.88488 17.121 7.05884 14.9997 7.05884C12.8784 7.05884 10.8842 7.88488 9.38422 9.38483C8.10939 10.6597 7.30007 12.3469 7.10526 14.1357C6.92109 15.8268 7.28862 17.548 8.14131 19.0071L7.31375 22.0956C7.26914 22.262 7.31673 22.4396 7.4386 22.5614C7.56042 22.6833 7.73807 22.7308 7.9044 22.6863L10.9928 21.8587C12.2059 22.5676 13.6002 22.9412 15.0076 22.9412C15.2931 22.9412 15.5791 22.9258 15.8643 22.8948C17.6531 22.7 19.3404 21.8906 20.6152 20.6158C22.1151 19.1158 22.9412 17.1215 22.9412 15.0003C22.9412 12.8791 22.1151 10.8848 20.6152 9.38486ZM19.9331 19.9337C17.6274 22.2395 14.0858 22.6492 11.3208 20.9302C11.2436 20.8823 11.1553 20.8575 11.0661 20.8575C11.0243 20.8575 10.9824 20.863 10.9413 20.874L8.46162 21.5384L9.12607 19.0588C9.16057 18.9299 9.14019 18.7925 9.0698 18.6793C7.35076 15.9141 7.76053 12.3726 10.0662 10.0669C12.7866 7.34658 17.2128 7.34658 19.9331 10.0669C22.6534 12.7872 22.6534 17.2134 19.9331 19.9337Z" fill="#8E9296"/>
</g>
<defs>
<clipPath id="clip0_45_9">
<rect width="15.8824" height="15.8824" fill="white" transform="translate(7.05884 7.05884)"/>
</clipPath>
</defs>
</svg>
